<svg width="20" height="33" viewBox="0 0 20 33" fill="none" xmlns="http://www.w3.org/2000/svg">
<path d="M19.9998 16.1707V17.7267L18.5538 16.9511L8.51971 11.5464H8.51482L7.07372 10.7659L5.69121 10.0195H5.68632L4.24031 9.24388L2.86269 8.49739L1.41182 7.72181L0 6.95593V5.40479H0.00488992L1.41182 6.16097L1.44602 6.18036L2.86269 6.94139L4.24031 7.68303L4.30871 7.72181L5.68632 8.46345H5.69121L7.07372 9.20995L7.13234 9.24388L8.51482 9.98552H8.51971L9.96083 10.7659L18.5538 15.3951L19.9998 16.1707Z" fill="#40C7F4"/>
<path d="M19.9998 19.2487V20.8047L18.5538 20.0291L17.142 19.2681L15.696 18.4877L5.65701 13.0829L4.21589 12.3073L2.82852 11.5608L1.38251 10.7804L0 10.0388V8.48279L1.44602 9.25836L2.82852 10.0049L4.27451 10.7853L5.65701 11.5269L7.10303 12.3073L17.142 17.7121L18.588 18.4877L19.9998 19.2487Z" fill="#4EC0A5"/>
<path d="M19.9998 22.2978V23.8538L18.5538 23.0782L17.1713 22.3317L15.7302 21.5513H15.7253L14.3135 20.7902L12.8675 20.0147L2.82852 14.605L1.38251 13.8295L0 13.083V11.527L1.44602 12.3074L2.82852 13.049L4.27451 13.8295L14.3135 19.2342L15.7595 20.0147L17.1713 20.7757L18.6173 21.5513L19.9998 22.2978Z" fill="#F89F28"/>
<path d="M19.9998 25.342V26.898L18.5538 26.1224L17.1713 25.3759L15.7302 24.6003H15.7253L14.3428 23.8539L12.9017 23.0783H12.8968L11.485 22.3124L10.039 21.5368L0 16.132V14.576L1.44602 15.3516L11.485 20.7564L12.931 21.5368L14.3428 22.2979L15.7888 23.0734L17.1713 23.8199L18.6173 24.6003L19.9998 25.342Z" fill="#F16A82"/>
<path d="M11.485 0.775569L9.99992 1.57538L2.892 5.39993L1.44602 6.18035L0 6.95592V5.40478H0.00488992L1.45091 4.62436L9.99992 0.0193861L10.039 0L11.485 0.775569Z" fill="#40C7F4"/>
<path d="M14.3429 2.31207L10.0001 4.65333L7.73333 5.87486L5.75485 6.94128L5.69134 6.90735L4.30884 6.16086L5.72065 5.40467L10.0001 3.09734L12.8969 1.5365L14.3429 2.31207Z" fill="#4EC0A5"/>
<path d="M17.1713 3.83914L11.6755 6.79601L9.99993 7.70247L8.58322 8.46349L7.13721 7.68307L9.66285 6.32582L9.99993 6.14162L15.7253 3.05872L17.1713 3.83914Z" fill="#F89F28"/>
<path d="M19.9999 5.36123L15.6179 7.72188L11.4069 9.98559L9.96582 9.21002L10 9.19063L13.6053 7.24685L18.5588 4.58081L19.9999 5.36123Z" fill="#F16A82"/>
<path d="M10.0341 23.0926L9.99992 23.112L6.37512 25.0655L1.44602 27.7218L0 26.9414L4.3478 24.6001L8.593 22.317L10.0341 23.0926Z" fill="#40C7F4"/>
<path d="M12.892 24.6342L10.381 25.9866L10 26.1902L4.30392 29.2585L2.86279 28.483L8.35859 25.5212L10 24.6342L11.4509 23.8538L11.49 23.878L12.892 24.6342Z" fill="#4EC0A5"/>
<path d="M15.7255 26.1563L14.3479 26.8979L10.0001 29.2392L7.13254 30.7807L5.68652 30.0051L10.0001 27.6832L12.3206 26.4326L14.2795 25.3807L14.343 25.4147L15.7255 26.1563Z" fill="#F89F28"/>
<path d="M19.9999 25.3418V26.8978L19.995 26.9026L18.549 27.6782L9.99999 32.2832L9.9609 32.3026L8.51978 31.527L9.99999 30.7272L17.1079 26.9026L18.5539 26.1222L19.9999 25.3418Z" fill="#F16A82"/>
<path d="M8.59334 22.317L4.34814 24.6001L6.37546 25.0655L10.0003 23.112L10.0345 23.0926L8.59334 22.317Z" fill="#227F9C"/>
<path d="M11.451 23.8538L10.0001 24.6342L8.35864 25.5212L10.3811 25.9866L12.8921 24.6342L11.49 23.878L11.451 23.8538Z" fill="#288D74"/>
<path d="M14.2795 25.3807L12.3206 26.4326L14.3479 26.8979L15.7255 26.1563L14.343 25.4147L14.2795 25.3807Z" fill="#A56924"/>
<path d="M5.72065 5.40479L4.30884 6.16097L5.69134 6.90746L5.75485 6.94139L7.73333 5.87498L5.72065 5.40479Z" fill="#288D74"/>
<path d="M9.66285 6.32581L7.13721 7.68306L8.58322 8.46348L9.99993 7.6976L11.6755 6.796L9.66285 6.32581Z" fill="#A56924"/>
<path d="M13.6053 7.2467L10 9.19048L9.96582 9.20988L11.4069 9.98545L15.6179 7.72174L13.6053 7.2467Z" fill="#A44153"/>
</svg>
