<svg width="48" height="48" viewBox="0 0 48 48" fill="none" xmlns="http://www.w3.org/2000/svg">
<path d="M28.442 18.6554C28.804 19.0725 29.4355 19.1173 29.8527 18.7553C30.2698 18.3933 30.3146 17.7618 29.9526 17.3446L28.442 18.6554ZM19.558 29.3446C19.1961 28.9275 18.5645 28.8827 18.1474 29.2447C17.7302 29.6067 17.6855 30.2382 18.0474 30.6554L19.558 29.3446ZM25 14C25 13.4477 24.5523 13 24 13C23.4477 13 23 13.4477 23 14H25ZM23 34C23 34.5523 23.4477 35 24 35C24.5523 35 25 34.5523 25 34L23 34ZM41 24C41 33.3888 33.3888 41 24 41V43C34.4934 43 43 34.4934 43 24H41ZM24 41C14.6112 41 7 33.3888 7 24H5C5 34.4934 13.5066 43 24 43V41ZM7 24C7 14.6112 14.6112 7 24 7V5C13.5066 5 5 13.5066 5 24H7ZM24 7C33.3888 7 41 14.6112 41 24H43C43 13.5066 34.4934 5 24 5V7ZM24 23C22.513 23 21.2121 22.5964 20.3121 21.9964C19.4051 21.3917 19 20.6662 19 20H17C17 21.543 17.9381 22.8174 19.2027 23.6605C20.4742 24.5082 22.1733 25 24 25V23ZM19 20C19 19.3338 19.4051 18.6083 20.3121 18.0036C21.2121 17.4036 22.513 17 24 17V15C22.1733 15 20.4742 15.4918 19.2027 16.3395C17.9381 17.1826 17 18.457 17 20H19ZM24 17C26.0142 17 27.643 17.7345 28.442 18.6554L29.9526 17.3446C28.6768 15.8743 26.4275 15 24 15V17ZM24 25C25.487 25 26.7879 25.4036 27.688 26.0036C28.595 26.6083 29 27.3338 29 28H31C31 26.457 30.0619 25.1826 28.7974 24.3395C27.5258 23.4918 25.8267 23 24 23V25ZM23 14V16H25V14H23ZM23 32L23 34L25 34L25 32L23 32ZM24 31C21.9859 31 20.3571 30.2655 19.558 29.3446L18.0474 30.6554C19.3232 32.1257 21.5726 33 24 33L24 31ZM29 28C29 28.6662 28.595 29.3917 27.688 29.9964C26.788 30.5964 25.487 31 24 31V33C25.8268 33 27.5258 32.5082 28.7974 31.6605C30.062 30.8174 31 29.543 31 28H29ZM23 16L23 32L25 32L25 16L23 16Z" fill="#F16A82"/>
</svg>
