<svg width="48" height="48" viewBox="0 0 48 48" fill="none" xmlns="http://www.w3.org/2000/svg">
<path d="M12 42H24M18 42V6L6 18H42M18 6L38 18" stroke="#40C7F4" stroke-width="2" stroke-linecap="round" stroke-linejoin="round"/>
<path d="M34 18V26C34.7911 26 35.5645 26.2346 36.2223 26.6741C36.8801 27.1136 37.3928 27.7384 37.6955 28.4693C37.9983 29.2002 38.0775 30.0044 37.9231 30.7804C37.7688 31.5563 37.3878 32.269 36.8284 32.8284C36.269 33.3878 35.5563 33.7688 34.7804 33.9231C34.0044 34.0775 33.2002 33.9983 32.4693 33.6955C31.7384 33.3928 31.1136 32.8801 30.6741 32.2223C30.2346 31.5645 30 30.7911 30 30" stroke="#40C7F4" stroke-width="2" stroke-linecap="round" stroke-linejoin="round"/>
</svg>
