<svg width="50" height="49" viewBox="0 0 50 49" fill="none" xmlns="http://www.w3.org/2000/svg">
<path d="M1 42.6665V18.8542C1 17.071 1.89121 15.4057 3.37493 14.4166L22.0416 1.97215C23.8331 0.777839 26.1669 0.777839 27.9584 1.97215L46.6251 14.4166C48.1088 15.4057 49 17.071 49 18.8542V42.6665M1 42.6665C1 45.6121 3.38781 47.9999 6.33333 47.9999H43.6667C46.6122 47.9999 49 45.6121 49 42.6665M1 42.6665L19 30.6665M49 42.6665L31 30.6665M1 18.6665L19 30.6665M49 18.6665L31 30.6665M31 30.6665L27.9584 32.6943C26.1669 33.8886 23.8331 33.8886 22.0416 32.6943L19 30.6665" stroke="white" stroke-width="2" stroke-linecap="round" stroke-linejoin="round"/>
</svg>
