<svg width="140" height="48" viewBox="0 0 140 48" fill="none" xmlns="http://www.w3.org/2000/svg">
<g clip-path="url(#clip0_2506_8126)">
<path d="M45.224 34.2578C45.5329 33.9726 45.691 33.609 45.691 33.167C45.691 32.725 45.5329 32.3613 45.224 32.0762C44.915 31.791 44.4839 31.6484 43.9378 31.6484H42.508V34.6785H43.9378C44.4839 34.6856 44.915 34.543 45.224 34.2578ZM45.9784 31.406C46.4957 31.8694 46.7616 32.4612 46.7616 33.167C46.7616 33.88 46.5029 34.4646 45.9784 34.928C45.4611 35.3914 44.7785 35.6196 43.9378 35.6196H42.508V38.4429H41.4302V30.7073H43.9378C44.7785 30.7073 45.4611 30.9426 45.9784 31.406Z" fill="white"/>
<path d="M47.9688 38.443V32.996H48.9603V34.0512C49.0681 33.7161 49.2765 33.4452 49.5926 33.2455C49.9016 33.0388 50.2321 32.939 50.5842 32.939C50.7566 32.939 50.9003 32.9532 51.0369 32.9817V33.9514C50.9003 33.8943 50.7135 33.8658 50.4908 33.8658C50.0884 33.8658 49.7363 34.0298 49.4274 34.3578C49.1184 34.6857 48.9675 35.1491 48.9675 35.7409V38.443H47.9688Z" fill="white"/>
<path d="M53.1062 37.1099C53.4798 37.4878 53.9612 37.6731 54.5575 37.6731C55.1539 37.6731 55.6353 37.4806 56.0018 37.1099C56.3754 36.732 56.5551 36.2686 56.5551 35.7196C56.5551 35.1706 56.3682 34.7001 56.0018 34.3222C55.6353 33.9444 55.1539 33.759 54.5575 33.759C53.9612 33.759 53.4798 33.9444 53.1062 34.3222C52.7325 34.7001 52.5457 35.1635 52.5457 35.7196C52.5457 36.2686 52.7325 36.7392 53.1062 37.1099ZM54.5575 38.5501C53.6881 38.5501 52.9624 38.2792 52.3876 37.7302C51.8128 37.1812 51.5254 36.511 51.5254 35.7196C51.5254 34.9282 51.8128 34.2581 52.3876 33.7091C52.9624 33.1601 53.6809 32.8892 54.5575 32.8892C55.4198 32.8892 56.1383 33.1601 56.7131 33.7091C57.2879 34.2581 57.5754 34.9282 57.5754 35.7196C57.5754 36.511 57.2879 37.1812 56.7131 37.7302C56.1383 38.2792 55.4198 38.5501 54.5575 38.5501Z" fill="white"/>
<path d="M60.4641 37.1241C60.8306 37.502 61.3048 37.6874 61.8724 37.6874C62.44 37.6874 62.9143 37.502 63.2807 37.1241C63.6472 36.7462 63.834 36.2757 63.834 35.7196C63.834 35.1635 63.6472 34.6929 63.2807 34.315C62.9071 33.9372 62.44 33.7447 61.8724 33.7447C61.3048 33.7447 60.8306 33.9372 60.4641 34.315C60.0905 34.6929 59.9108 35.1635 59.9108 35.7196C59.9108 36.2757 60.0905 36.7462 60.4641 37.1241ZM59.9899 40.7174H58.9983V32.9961H59.9899V33.8373C60.191 33.5593 60.4713 33.3383 60.8377 33.16C61.2042 32.9818 61.5994 32.8962 62.0233 32.8962C62.8209 32.8962 63.4963 33.1743 64.0424 33.7233C64.5884 34.2723 64.8543 34.9424 64.8543 35.7267C64.8543 36.511 64.5812 37.1811 64.0424 37.7301C63.4963 38.2791 62.828 38.5572 62.0233 38.5572C61.5994 38.5572 61.2042 38.4716 60.8377 38.2862C60.4713 38.108 60.191 37.8799 59.9899 37.6089V40.7174Z" fill="white"/>
<path d="M69.8834 34.1012C69.5673 33.8445 69.1864 33.7162 68.741 33.7162C68.2955 33.7162 67.8931 33.8445 67.5482 34.0941C67.1962 34.3507 66.9806 34.7286 66.8944 35.2277H70.5014C70.4008 34.7357 70.1996 34.3579 69.8834 34.1012ZM68.7482 38.5501C67.9075 38.5501 67.2105 38.2792 66.6645 37.7444C66.1112 37.2097 65.8381 36.5324 65.8381 35.7196C65.8381 34.8997 66.104 34.2224 66.6429 33.6877C67.1818 33.153 67.886 32.8892 68.7769 32.8892C69.6679 32.8892 70.372 33.1886 70.8822 33.7804C71.3923 34.3721 71.6151 35.1065 71.5504 35.9692H66.8441C66.8585 36.4611 67.0525 36.8746 67.4189 37.2026C67.7853 37.5306 68.238 37.7017 68.7625 37.7017C69.5457 37.7017 70.1062 37.3951 70.4367 36.7891H71.4498C71.3061 37.2953 70.99 37.7159 70.5157 38.051C70.0415 38.3861 69.4523 38.5501 68.7482 38.5501Z" fill="white"/>
<path d="M72.9805 38.443V32.996H73.972V34.0512C74.0798 33.7161 74.2882 33.4452 74.6043 33.2455C74.9133 33.0388 75.2438 32.939 75.5959 32.939C75.7684 32.939 75.9193 32.9532 76.0486 32.9817V33.9514C75.9121 33.8943 75.7252 33.8658 75.5025 33.8658C75.1001 33.8658 74.7481 34.0298 74.4391 34.3578C74.1301 34.6857 73.9792 35.1491 73.9792 35.7409V38.443H72.9805Z" fill="white"/>
<path d="M79.4474 38.493C78.9157 38.493 78.4846 38.3505 78.1613 38.0724C77.8379 37.7872 77.6798 37.3737 77.6798 36.8318V33.8588H76.4512V32.9961H77.6798V31.4846H78.6714V32.9961H80.3384V33.8588H78.6714V36.7106C78.6714 37.0529 78.7504 37.2953 78.9013 37.4307C79.0522 37.5662 79.2965 37.6375 79.627 37.6375C79.9216 37.6375 80.1516 37.6018 80.3312 37.5306V38.3718C80.0653 38.4503 79.7636 38.493 79.4474 38.493Z" fill="white"/>
<path d="M83.1478 40.7172H82.0413L83.2987 38.1577L80.7695 32.9958H81.8617L83.852 37.131L85.8279 32.9958H86.9344L83.1478 40.7172Z" fill="white"/>
<path d="M94.3069 38.5714C93.0998 38.5714 92.0867 38.1864 91.2747 37.4235C90.4628 36.6606 90.0532 35.7053 90.0532 34.5788C90.0532 33.4452 90.4628 32.4969 91.2747 31.7341C92.0867 30.9712 93.0998 30.5862 94.3069 30.5862C95.2338 30.5862 96.0457 30.8215 96.7571 31.292C97.4684 31.7626 97.9426 32.3329 98.1869 33.0103H96.9942C96.7642 32.5753 96.405 32.2189 95.9308 31.9551C95.4565 31.6841 94.9104 31.5487 94.2997 31.5487C93.3872 31.5487 92.6327 31.841 92.0292 32.4256C91.4256 33.0103 91.1238 33.7303 91.1238 34.5859C91.1238 35.4415 91.4256 36.1616 92.0292 36.7462C92.6327 37.3308 93.3943 37.6231 94.2997 37.6231C95.1404 37.6231 95.8302 37.3736 96.3762 36.8816C96.9223 36.3897 97.2313 35.7552 97.3031 34.978H94.2566V34.0298H98.4169C98.5246 35.3916 98.1797 36.4967 97.375 37.3308C96.5846 38.1579 95.5571 38.5714 94.3069 38.5714Z" fill="white"/>
<path d="M99.8323 38.443V32.996H100.824V34.0512C100.932 33.7161 101.14 33.4452 101.456 33.2455C101.765 33.0388 102.096 32.939 102.448 32.939C102.62 32.939 102.764 32.9532 102.9 32.9817V33.9514C102.764 33.8943 102.577 33.8658 102.354 33.8658C101.952 33.8658 101.6 34.0298 101.291 34.3578C100.982 34.6857 100.831 35.1491 100.831 35.7409V38.443H99.8323Z" fill="white"/>
<path d="M104.97 37.1097C105.343 37.4875 105.825 37.6729 106.421 37.6729C107.01 37.6729 107.492 37.4804 107.865 37.1097C108.232 36.7318 108.419 36.2684 108.419 35.7194C108.419 35.1704 108.232 34.6998 107.865 34.322C107.499 33.9441 107.017 33.7587 106.421 33.7587C105.825 33.7587 105.343 33.9441 104.97 34.322C104.596 34.6998 104.409 35.1633 104.409 35.7194C104.409 36.2684 104.596 36.7389 104.97 37.1097ZM106.421 38.5498C105.552 38.5498 104.826 38.2789 104.251 37.7299C103.676 37.181 103.389 36.5108 103.389 35.7194C103.389 34.928 103.676 34.2578 104.251 33.7088C104.826 33.1598 105.544 32.8889 106.421 32.8889C107.283 32.8889 108.002 33.1598 108.577 33.7088C109.151 34.2578 109.439 34.928 109.439 35.7194C109.439 36.5108 109.151 37.181 108.577 37.7299C108.002 38.2789 107.283 38.5498 106.421 38.5498Z" fill="white"/>
<path d="M112.902 38.5498C112.27 38.5498 111.76 38.3502 111.365 37.9438C110.969 37.5374 110.775 37.0027 110.775 36.3396V32.9958H111.767V36.197C111.767 36.6533 111.882 37.017 112.119 37.2879C112.356 37.5588 112.672 37.6943 113.075 37.6943C113.535 37.6943 113.923 37.516 114.224 37.1524C114.526 36.7959 114.684 36.3111 114.684 35.698V32.9958H115.676V38.4429H114.684V37.6016C114.303 38.2361 113.714 38.5498 112.902 38.5498Z" fill="white"/>
<path d="M119.017 37.1239C119.383 37.5017 119.858 37.6871 120.425 37.6871C120.993 37.6871 121.467 37.5017 121.834 37.1239C122.207 36.746 122.387 36.2754 122.387 35.7193C122.387 35.1632 122.2 34.6927 121.834 34.3148C121.467 33.9369 120.993 33.7444 120.425 33.7444C119.858 33.7444 119.383 33.9369 119.017 34.3148C118.651 34.6927 118.464 35.1632 118.464 35.7193C118.464 36.2754 118.651 36.746 119.017 37.1239ZM118.543 40.7172H117.551V32.9958H118.543V33.8371C118.744 33.559 119.024 33.338 119.391 33.1598C119.757 32.9815 120.152 32.896 120.576 32.896C121.374 32.896 122.049 33.174 122.595 33.723C123.141 34.272 123.407 34.9422 123.407 35.7265C123.407 36.5107 123.134 37.1809 122.595 37.7299C122.049 38.2789 121.381 38.5569 120.576 38.5569C120.152 38.5569 119.757 38.4714 119.391 38.286C119.024 38.1078 118.744 37.8796 118.543 37.6087V40.7172Z" fill="white"/>
<path d="M40.949 21.4674L43.1405 18.9934C44.6566 20.1698 46.2445 20.9255 48.1702 20.9255C49.6863 20.9255 50.606 20.3551 50.606 19.4283V19.3855C50.606 18.5014 50.0311 18.0451 47.2073 17.3678C43.8159 16.5479 41.6244 15.6638 41.6244 12.5125V12.4698C41.6244 9.5894 44.0818 7.68579 47.5235 7.68579C49.9809 7.68579 52.0718 8.41301 53.7819 9.70348L51.8562 12.3343C50.3616 11.3575 48.8959 10.7658 47.4732 10.7658C46.0505 10.7658 45.3032 11.3789 45.3032 12.1489V12.1917C45.3032 13.2326 46.0289 13.5749 48.939 14.2807C52.3592 15.122 54.2848 16.277 54.2848 19.0433V19.0861C54.2848 22.2374 51.734 24.0055 48.0983 24.0055C45.5475 24.0126 42.968 23.1713 40.949 21.4674Z" fill="white"/>
<path d="M63.4816 11.1222H58.3513V7.89966H72.3194V11.1222H67.1892V23.7845H63.4816V11.1222Z" fill="white"/>
<path d="M85.0305 15.6139C86.834 15.6139 87.8687 14.7085 87.8687 13.3681V13.3253C87.8687 11.8281 86.7622 11.0581 84.9587 11.0581H81.2726V15.621H85.0305V15.6139ZM77.5651 7.89966H85.2676C87.4088 7.89966 89.0686 8.47002 90.1824 9.51095C91.1236 10.395 91.6266 11.6427 91.6266 13.1399V13.1827C91.6266 15.7494 90.1608 17.3607 88.0124 18.1093L92.1296 23.7773H87.7968L84.1827 18.6939H84.1324H81.2655V23.7773H77.5579V7.89966H77.5651Z" fill="white"/>
<path d="M101.255 7.89966H97.5471V23.7845H101.255V7.89966Z" fill="white"/>
<path d="M114.526 15.9134C116.38 15.9134 117.465 14.8724 117.465 13.5107V13.4679C117.465 11.8994 116.308 11.0652 114.454 11.0652H111.587V15.9205H114.526V15.9134ZM107.88 7.89966H114.763C118.787 7.89966 121.215 10.1455 121.215 13.3895V13.4322C121.215 17.104 118.183 19.0147 114.404 19.0147H111.587V23.7773H107.88V7.89966Z" fill="white"/>
<path d="M126.367 7.89966H139.085V11.0082H130.053V14.2308H138V17.3393H130.053V20.676H139.2V23.7845H126.367V7.89966Z" fill="white"/>
<path d="M29.4164 23.7844V26.073L27.2896 24.9322L12.5311 16.9827H12.5239L10.4043 15.8348L8.37084 14.7369H8.36364L6.23679 13.5961L4.21055 12.4982L2.07655 11.3574L0 10.2309V7.94946H0.00719227L2.07655 9.06168L2.12685 9.09021L4.21055 10.2096L6.23679 11.3004L6.3374 11.3574L8.36364 12.4483H8.37084L10.4043 13.5462L10.4905 13.5961L12.5239 14.687H12.5311L14.6507 15.8348L27.2896 22.6436L29.4164 23.7844Z" fill="#40C7F4"/>
<path d="M29.4164 28.3117V30.6003L27.2896 29.4596L25.2131 28.3402L23.0862 27.1924L8.32053 19.2428L6.20088 18.1021L4.16029 17.0041L2.03344 15.8562L0 14.7654V12.4768L2.12685 13.6175L4.16029 14.7155L6.2871 15.8634L8.32053 16.9542L10.4474 18.1021L25.2131 26.0516L27.3399 27.1924L29.4164 28.3117Z" fill="#4EC0A5"/>
<path d="M29.4164 32.7964V35.085L27.2896 33.9443L25.2562 32.8463L23.1365 31.6984H23.1293L21.0528 30.5791L18.926 29.4383L4.16029 21.4817L2.03344 20.3409L0 19.243V16.9543L2.12685 18.1022L4.16029 19.193L6.2871 20.3409L21.0528 28.2905L23.1796 29.4383L25.2562 30.5577L27.383 31.6984L29.4164 32.7964Z" fill="#F89F28"/>
<path d="M29.4164 37.2739V39.5625L27.2896 38.4217L25.2562 37.3238L23.1365 36.183H23.1293L21.0959 35.0851L18.9763 33.9443H18.9691L16.8925 32.8179L14.7657 31.6771L0 23.7276V21.439L2.12685 22.5797L16.8925 30.5292L19.0194 31.6771L21.0959 32.7965L23.2227 33.9372L25.2562 35.0352L27.383 36.183L29.4164 37.2739Z" fill="#F16A82"/>
<path d="M16.8925 1.14073L14.7082 2.31713L4.25366 7.94241L2.12685 9.09028L0 10.231V7.94953H0.00719227L2.13404 6.80166L14.7082 0.0285137L14.7657 0L16.8925 1.14073Z" fill="#40C7F4"/>
<path d="M21.0961 3.40074L14.7085 6.84436L11.3745 8.64103L8.4645 10.2095L8.37108 10.1596L6.33765 9.06167L8.41419 7.94945L14.7085 4.55575L18.9693 2.26001L21.0961 3.40074Z" fill="#4EC0A5"/>
<path d="M25.2563 5.64665L17.1729 9.99572L14.7084 11.329L12.6247 12.4483L10.4978 11.3004L14.2126 9.30414L14.7084 9.03323L23.1295 4.49878L25.2563 5.64665Z" fill="#F89F28"/>
<path d="M29.4167 7.88542L22.9715 11.3575L16.7779 14.6871L14.6582 13.5463L14.7085 13.5178L20.0112 10.6588L27.297 6.73755L29.4167 7.88542Z" fill="#F16A82"/>
<path d="M14.7585 33.9655L14.7082 33.994L9.37674 36.8672L2.12685 40.7743L0 39.6264L6.39489 36.1828L12.6389 32.8247L14.7585 33.9655Z" fill="#40C7F4"/>
<path d="M18.962 36.2328L15.2688 38.222L14.7084 38.5214L6.33035 43.0345L4.21069 41.8938L12.2941 37.5376L14.7084 36.2328L16.8424 35.085L16.8999 35.1206L18.962 36.2328Z" fill="#4EC0A5"/>
<path d="M23.1295 38.4715L21.1032 39.5624L14.7084 43.006L10.4906 45.2732L8.36377 44.1325L14.7084 40.7174L18.1214 38.8779L21.0026 37.3308L21.096 37.3807L23.1295 38.4715Z" fill="#F89F28"/>
<path d="M29.4166 37.2737V39.5623L29.4094 39.5694L27.2826 40.7102L14.7084 47.4833L14.6509 47.5118L12.5312 46.3711L14.7084 45.1947L25.1629 39.5694L27.2898 38.4216L29.4166 37.2737Z" fill="#F16A82"/>
<path d="M12.6392 32.8247L6.39526 36.1828L9.37712 36.8672L14.7086 33.994L14.7589 33.9655L12.6392 32.8247Z" fill="#227F9C"/>
<path d="M16.8425 35.085L14.7085 36.2328L12.2942 37.5376L15.2689 38.222L18.9621 36.2328L16.9 35.1206L16.8425 35.085Z" fill="#288D74"/>
<path d="M21.0026 37.3308L18.1213 38.8779L21.1032 39.5624L23.1294 38.4715L21.096 37.3807L21.0026 37.3308Z" fill="#A56924"/>
<path d="M8.41419 7.94946L6.33765 9.06168L8.37108 10.1597L8.4645 10.2096L11.3745 8.64104L8.41419 7.94946Z" fill="#288D74"/>
<path d="M14.2126 9.3042L10.4978 11.3005L12.6247 12.4484L14.7084 11.3219L17.1729 9.99577L14.2126 9.3042Z" fill="#A56924"/>
<path d="M20.0112 10.6587L14.7085 13.5177L14.6582 13.5462L16.7779 14.6869L22.9715 11.3574L20.0112 10.6587Z" fill="#A44153"/>
</g>
<defs>
<clipPath id="clip0_2506_8126">
<rect width="139.2" height="48" fill="white"/>
</clipPath>
</defs>
</svg>
