<svg width="64" height="29" viewBox="0 0 64 29" fill="none" xmlns="http://www.w3.org/2000/svg">
<path d="M10.2266 7.625V19H8.07031L3.23438 11.1094V19H1.08594V7.625H3.23438L8.08594 15.5234V7.625H10.2266ZM16.0547 19.1562C15.4141 19.1562 14.8385 19.0521 14.3281 18.8438C13.8177 18.6354 13.3828 18.3464 13.0234 17.9766C12.6693 17.6016 12.3958 17.1667 12.2031 16.6719C12.0156 16.1719 11.9219 15.6354 11.9219 15.0625V14.75C11.9219 14.099 12.0156 13.5078 12.2031 12.9766C12.3906 12.4401 12.6562 11.9792 13 11.5938C13.3438 11.2083 13.7552 10.9115 14.2344 10.7031C14.7135 10.4948 15.2422 10.3906 15.8203 10.3906C16.4193 10.3906 16.9479 10.4922 17.4062 10.6953C17.8646 10.8932 18.2474 11.1745 18.5547 11.5391C18.862 11.9036 19.0938 12.3411 19.25 12.8516C19.4062 13.3568 19.4844 13.9167 19.4844 14.5312V15.3984H12.8594V13.9766H17.4531V13.8203C17.4427 13.4922 17.3802 13.1927 17.2656 12.9219C17.151 12.6458 16.974 12.4271 16.7344 12.2656C16.4948 12.099 16.1849 12.0156 15.8047 12.0156C15.4974 12.0156 15.2292 12.0833 15 12.2188C14.776 12.349 14.5885 12.5365 14.4375 12.7812C14.2917 13.0208 14.1823 13.3073 14.1094 13.6406C14.0365 13.974 14 14.3438 14 14.75V15.0625C14 15.4167 14.0469 15.7448 14.1406 16.0469C14.2396 16.349 14.3828 16.612 14.5703 16.8359C14.763 17.0547 14.9922 17.2266 15.2578 17.3516C15.5286 17.4714 15.8359 17.5312 16.1797 17.5312C16.612 17.5312 17.0026 17.4479 17.3516 17.2812C17.7057 17.1094 18.013 16.8568 18.2734 16.5234L19.3125 17.6016C19.1354 17.862 18.8958 18.112 18.5938 18.3516C18.2969 18.5911 17.9375 18.7865 17.5156 18.9375C17.0938 19.0833 16.6068 19.1562 16.0547 19.1562ZM22.4844 10.5469L23.9922 13.2344L25.5234 10.5469H27.7656L25.2812 14.6875L27.8672 19H25.625L24.0078 16.1797L22.3828 19H20.1406L22.7188 14.6875L20.25 10.5469H22.4844ZM32.9609 10.5469V12.0312H28.1172V10.5469H32.9609ZM29.4141 8.46875H31.4844V16.5625C31.4844 16.8125 31.5182 17.0052 31.5859 17.1406C31.6536 17.276 31.7552 17.3672 31.8906 17.4141C32.026 17.4609 32.1875 17.4844 32.375 17.4844C32.5104 17.4844 32.6354 17.4766 32.75 17.4609C32.8646 17.4453 32.9609 17.4297 33.0391 17.4141L33.0469 18.9609C32.875 19.0182 32.6797 19.0651 32.4609 19.1016C32.2474 19.138 32.0052 19.1562 31.7344 19.1562C31.2708 19.1562 30.8646 19.0781 30.5156 18.9219C30.1667 18.7604 29.8958 18.5026 29.7031 18.1484C29.5104 17.7891 29.4141 17.3151 29.4141 16.7266V8.46875Z" fill="#212B36"/>
<line x1="64" y1="28.5" y2="28.5" stroke="#212B36"/>
</svg>
