<svg width="64" height="29" viewBox="0 0 64 29" fill="none" xmlns="http://www.w3.org/2000/svg">
<path d="M37.0703 14.8516H34.1406V13.1641H37.0703C37.5495 13.1641 37.9375 13.0859 38.2344 12.9297C38.5365 12.7682 38.7578 12.5495 38.8984 12.2734C39.0391 11.9922 39.1094 11.6719 39.1094 11.3125C39.1094 10.9635 39.0391 10.638 38.8984 10.3359C38.7578 10.0339 38.5365 9.78906 38.2344 9.60156C37.9375 9.41406 37.5495 9.32031 37.0703 9.32031H34.8438V19H32.6953V7.625H37.0703C37.9557 7.625 38.7109 7.78385 39.3359 8.10156C39.9661 8.41406 40.4453 8.84896 40.7734 9.40625C41.1068 9.95833 41.2734 10.5885 41.2734 11.2969C41.2734 12.0312 41.1068 12.6641 40.7734 13.1953C40.4453 13.7266 39.9661 14.1354 39.3359 14.4219C38.7109 14.7083 37.9557 14.8516 37.0703 14.8516ZM44.8672 12.2734V19H42.8047V10.5469H44.7578L44.8672 12.2734ZM47.4375 10.4922L47.4062 12.4141C47.2917 12.3932 47.1615 12.3776 47.0156 12.3672C46.875 12.3568 46.7422 12.3516 46.6172 12.3516C46.2995 12.3516 46.0208 12.3958 45.7812 12.4844C45.5417 12.5677 45.3411 12.6901 45.1797 12.8516C45.0234 13.013 44.9036 13.2109 44.8203 13.4453C44.737 13.6745 44.6901 13.9349 44.6797 14.2266L44.2344 14.1719C44.2344 13.6354 44.2891 13.138 44.3984 12.6797C44.5078 12.2214 44.6667 11.8203 44.875 11.4766C45.0833 11.1328 45.3438 10.8672 45.6562 10.6797C45.974 10.487 46.3385 10.3906 46.75 10.3906C46.8646 10.3906 46.987 10.401 47.1172 10.4219C47.2526 10.4375 47.3594 10.4609 47.4375 10.4922ZM52.2109 19.1562C51.5703 19.1562 50.9948 19.0521 50.4844 18.8438C49.974 18.6354 49.5391 18.3464 49.1797 17.9766C48.8255 17.6016 48.5521 17.1667 48.3594 16.6719C48.1719 16.1719 48.0781 15.6354 48.0781 15.0625V14.75C48.0781 14.099 48.1719 13.5078 48.3594 12.9766C48.5469 12.4401 48.8125 11.9792 49.1562 11.5938C49.5 11.2083 49.9115 10.9115 50.3906 10.7031C50.8698 10.4948 51.3984 10.3906 51.9766 10.3906C52.5755 10.3906 53.1042 10.4922 53.5625 10.6953C54.0208 10.8932 54.4036 11.1745 54.7109 11.5391C55.0182 11.9036 55.25 12.3411 55.4062 12.8516C55.5625 13.3568 55.6406 13.9167 55.6406 14.5312V15.3984H49.0156V13.9766H53.6094V13.8203C53.599 13.4922 53.5365 13.1927 53.4219 12.9219C53.3073 12.6458 53.1302 12.4271 52.8906 12.2656C52.651 12.099 52.3411 12.0156 51.9609 12.0156C51.6536 12.0156 51.3854 12.0833 51.1562 12.2188C50.9323 12.349 50.7448 12.5365 50.5938 12.7812C50.4479 13.0208 50.3385 13.3073 50.2656 13.6406C50.1927 13.974 50.1562 14.3438 50.1562 14.75V15.0625C50.1562 15.4167 50.2031 15.7448 50.2969 16.0469C50.3958 16.349 50.5391 16.612 50.7266 16.8359C50.9193 17.0547 51.1484 17.2266 51.4141 17.3516C51.6849 17.4714 51.9922 17.5312 52.3359 17.5312C52.7682 17.5312 53.1589 17.4479 53.5078 17.2812C53.862 17.1094 54.1693 16.8568 54.4297 16.5234L55.4688 17.6016C55.2917 17.862 55.0521 18.112 54.75 18.3516C54.4531 18.5911 54.0938 18.7865 53.6719 18.9375C53.25 19.0833 52.763 19.1562 52.2109 19.1562ZM59.7188 17.4375L61.6875 10.5469H63.8438L60.9453 19H59.6328L59.7188 17.4375ZM58.2812 10.5469L60.2734 17.4531L60.3438 19H59.0234L56.1172 10.5469H58.2812Z" fill="#212B36"/>
<line x1="64" y1="28.5" y2="28.5" stroke="#212B36"/>
</svg>
