<svg width="44" height="42" viewBox="0 0 44 42" fill="none" xmlns="http://www.w3.org/2000/svg">
<path d="M21.049 1.92664C21.3483 1.00538 22.6517 1.00538 22.951 1.92664L27.1643 14.892C27.2982 15.304 27.6821 15.5829 28.1153 15.583L41.7481 15.5835C42.7168 15.5835 43.1195 16.8231 42.3358 17.3925L31.307 25.406C30.9566 25.6607 30.8099 26.112 30.9438 26.524L35.156 39.4897C35.4553 40.411 34.4009 41.1771 33.6172 40.6077L22.5878 32.595C22.2373 32.3404 21.7627 32.3404 21.4122 32.595L10.3828 40.6077C9.5991 41.1771 8.54467 40.411 8.84398 39.4897L13.0562 26.524C13.1901 26.112 13.0434 25.6607 12.693 25.406L1.66415 17.3925C0.880493 16.8231 1.28325 15.5835 2.25193 15.5835L15.8847 15.583C16.3179 15.5829 16.7018 15.304 16.8357 14.892L21.049 1.92664Z" stroke="#F89F28" stroke-width="2"/>
</svg>
